<?xml version="1.0" encoding="UTF-8"?>
<svg width="75px" height="75px" viewBox="0 0 75 75" version="1.1" xmlns="http://www.w3.org/2000/svg" xmlns:xlink="http://www.w3.org/1999/xlink">
    <!-- Generator: Sketch 58 (84663) - https://sketch.com -->
    <title>icon--audio-on</title>
    <desc>Created with Sketch.</desc>
    <defs>
        <polygon id="path-1" points="0.0324000013 0.433793055 23.2875009 0.433793055 23.2875009 36.5071858 0.0324000013 36.5071858"></polygon>
    </defs>
    <g id="Game-Version" stroke="none" stroke-width="1" fill="none" fill-rule="evenodd">
        <g id="Homepage--mobile" transform="translate(-68.000000, -542.000000)">
            <g id="001-play-button">
                <g></g>
            </g>
            <g id="Group-4" transform="translate(68.000000, 542.000000)">
                <g id="icon--audio-on">
                    <circle id="Oval" fill="#69DD72" cx="37.5" cy="37.5" r="37.5"></circle>
                    <g id="002-audio-speaker-on" transform="translate(14.500000, 16.500000)">
                        <g id="Group-3" transform="translate(0.000000, 2.700000)">
                            <mask id="mask-2" fill="white">
                                <use xlink:href="#path-1"></use>
                            </mask>
                            <g id="Clip-2"></g>
                            <path d="M19.4000408,0.934200037 L10.5300004,7.5767403 L2.4300001,7.5767403 C1.09242004,7.5767403 0,8.66970034 0,10.0067404 L0,26.9346611 C0,28.2717011 1.09242004,29.3646612 2.4300001,29.3646612 L10.5300004,29.3646612 L19.4000408,36.0072014 C21.0200408,37.2222015 23.2875009,36.0871214 23.2875009,34.0621214 L23.2875009,2.87712011 C23.2875009,0.852120034 20.9800808,-0.280800011 19.4000408,0.934200037 Z" id="Fill-1" fill="#FFFFFF" mask="url(#mask-2)"></path>
                        </g>
                        <path d="M31.3075812,7.6021203 C30.2124612,6.50970026 28.3899611,6.50970026 27.2975411,7.6021203 C26.204581,8.69670035 26.204581,10.5192004 27.2975411,11.6121605 C32.5625413,16.8771607 32.5625413,25.424281 27.2975411,30.6892812 C26.204581,31.7817013 26.204581,33.6042013 27.2975411,34.6971614 C27.8650811,35.2647014 28.5924611,35.5071614 29.2825812,35.5071614 C29.9700012,35.5071614 30.7400412,35.2242014 31.2649212,34.6572014 C38.8000815,27.2446211 38.8000815,15.0946206 31.3075812,7.6021203 Z" id="Fill-4" fill="#FFFFFF"></path>
                        <path d="M34.4649614,1.24470005 C33.3725413,2.33712009 33.3725413,4.15962017 34.4649614,5.25420021 C38.7174615,9.50670038 41.0675416,15.1367406 41.0675416,21.1696208 C41.0675416,27.2046611 38.7174615,32.8347013 34.4649614,37.0872015 C33.3725413,38.1796215 33.3725413,40.0021216 34.4649614,41.0967016 C35.0325014,41.6620817 35.7625814,41.9472017 36.4500014,41.9472017 C37.1800815,41.9472017 37.9074615,41.6642417 38.4350415,41.1372016 C43.7400017,35.8317014 46.6954219,28.7442011 46.6954219,21.2117408 C46.6954219,13.6771205 43.7799617,6.63174026 38.4350415,1.28466005 C37.3825815,0.151740006 35.6000414,0.151740006 34.4649614,1.24470005 Z" id="Fill-5" fill="#FFFFFF"></path>
                    </g>
                </g>
            </g>
        </g>
        <g id="001-play-button"></g>
    </g>
</svg>